<svg width="36" height="36" viewBox="0 0 36 36" fill="none" xmlns="http://www.w3.org/2000/svg">
<path d="M18 36C27.9411 36 36 27.9411 36 18C36 8.05887 27.9411 0 18 0C8.05887 0 0 8.05887 0 18C0 27.9411 8.05887 36 18 36Z" fill="#FED966"/>
<path d="M10.9531 16.694V26.347H24.8331V16.174L17.8161 9.25195L10.9531 16.694Z" fill="#727272"/>
<path d="M10.9883 16.5327H25.0083L17.9353 9.47266L10.9883 16.5327Z" fill="#727272"/>
<rect x="16" y="20" width="5" height="7" fill="#FED966"/>
<path d="M24.7232 26.9222L20.1537 26.9151V26.0561L24.2892 26.0532V16.2742L18.0072 10.0092L11.4213 16.5962V26.0532H15.9862V26.9092L10.9862 26.9012L10.5512 26.4662V17.4662L8.64025 19.3742L8.03125 18.7742L17.7032 9.07422H18.3123L27.9182 18.6832L27.3092 19.2922L25.1572 17.1442V26.4872L24.7232 26.9222Z" fill="#727272"/>
<path d="M21.0273 26.2603V19.6243L20.5923 19.1883L15.5483 19.1663L15.1133 19.6013V26.4883H15.9833V20.0373H20.1573V26.3033L21.0273 26.2603Z" fill="#727272"/>
</svg>
