<svg width="22" height="21" viewBox="0 0 22 21" fill="none" xmlns="http://www.w3.org/2000/svg">
<path d="M17.9883 13.9854H7.98828V19.9854H17.9883V13.9854Z" fill="white"/>
<path d="M16.2295 8.63966C17.6334 8.63966 18.7715 7.50157 18.7715 6.09766C18.7715 4.69376 17.6334 3.55566 16.2295 3.55566C14.8256 3.55566 13.6875 4.69376 13.6875 6.09766C13.6875 7.50157 14.8256 8.63966 16.2295 8.63966Z" fill="#FAFAB5"/>
<path d="M5.33008 6.95605H14.2741L17.3671 14.1371L8.60809 14.0471L5.33008 6.95605Z" fill="#00B4FF"/>
<path d="M21.4777 8.06265C21.438 8.06259 21.3986 8.05655 21.3607 8.04468L20.0607 7.65066C20.0099 7.6353 19.9626 7.61009 19.9215 7.57645C19.8805 7.5428 19.8464 7.50139 19.8213 7.45459C19.7962 7.40779 19.7807 7.35651 19.7754 7.30368C19.7702 7.25085 19.7754 7.19749 19.7907 7.14667C19.8061 7.09585 19.8313 7.04855 19.865 7.00748C19.8986 6.9664 19.94 6.93236 19.9868 6.90729C20.0336 6.88222 20.0849 6.86661 20.1377 6.86136C20.1906 6.8561 20.2439 6.86131 20.2947 6.87668L21.5947 7.27066C21.6997 7.28618 21.7943 7.34277 21.8576 7.42801C21.9209 7.51324 21.9477 7.62013 21.9322 7.72516C21.9167 7.83018 21.8601 7.92474 21.7749 7.98804C21.6896 8.05133 21.5827 8.07817 21.4777 8.06265Z" fill="#003250"/>
<path d="M12.2531 5.27362C12.2134 5.27356 12.174 5.26749 12.1361 5.25561L10.8361 4.8616C10.7853 4.84624 10.738 4.82103 10.6969 4.78738C10.6558 4.75374 10.6218 4.71233 10.5968 4.66553C10.5461 4.57101 10.5351 4.46024 10.5661 4.3576C10.5972 4.25497 10.6677 4.16886 10.7622 4.11822C10.8567 4.06759 10.9675 4.05659 11.0701 4.08762L12.3701 4.48163C12.4752 4.49714 12.5697 4.55374 12.633 4.63898C12.6963 4.72421 12.7231 4.8311 12.7076 4.93613C12.6921 5.04115 12.6355 5.13571 12.5503 5.199C12.465 5.2623 12.3582 5.28914 12.2531 5.27362Z" fill="#003250"/>
<path d="M16.9143 8.94943L16.7233 8.16345C17.1029 8.0709 17.4503 7.87708 17.7284 7.60265C18.0065 7.32823 18.2049 6.98351 18.3025 6.60519C18.4001 6.22687 18.3932 5.82914 18.2826 5.45443C18.1719 5.07972 17.9616 4.74206 17.6742 4.47744C17.3867 4.21282 17.0329 4.03117 16.6503 3.95184C16.2678 3.87251 15.8709 3.89847 15.5019 4.02697C15.1329 4.15547 14.8057 4.3817 14.5552 4.68151C14.3047 4.98133 14.1402 5.34349 14.0793 5.72942L13.2793 5.60442C13.3628 5.07375 13.5887 4.5757 13.933 4.16335C14.2774 3.75101 14.7272 3.43983 15.2344 3.26302C15.7417 3.08622 16.2874 3.05039 16.8135 3.15939C17.3395 3.26838 17.8261 3.51814 18.2213 3.88195C18.6166 4.24577 18.9057 4.71003 19.0578 5.22524C19.2099 5.74046 19.2193 6.28731 19.0851 6.80746C18.9508 7.32761 18.6779 7.80157 18.2954 8.1788C17.9129 8.55603 17.4363 8.82236 16.9143 8.94943Z" fill="#003250"/>
<path d="M18.8291 20.2563H0.629089C0.521809 20.2563 0.418937 20.2137 0.343079 20.1378C0.26722 20.062 0.224609 19.9591 0.224609 19.8518C0.224609 19.7445 0.26722 19.6416 0.343079 19.5658C0.418937 19.4899 0.521809 19.4473 0.629089 19.4473H18.8291C18.9364 19.4473 19.0393 19.4899 19.1151 19.5658C19.191 19.6416 19.2336 19.7445 19.2336 19.8518C19.2336 19.9591 19.191 20.062 19.1151 20.1378C19.0393 20.2137 18.9364 20.2563 18.8291 20.2563Z" fill="#003250"/>
<path d="M8.20355 20.2405C8.09747 20.2405 7.99573 20.1984 7.92072 20.1234C7.8457 20.0484 7.80359 19.9466 7.80359 19.8405V14.1405L4.97357 8.09354L2.20154 14.1395V19.8395C2.20154 19.9468 2.15893 20.0497 2.08307 20.1256C2.00721 20.2014 1.90434 20.244 1.79706 20.244C1.68978 20.244 1.58691 20.2014 1.51105 20.1256C1.43519 20.0497 1.39258 19.9468 1.39258 19.8395V14.0515C1.39258 13.9935 1.40519 13.9362 1.42957 13.8835L4.60156 6.96354C4.63718 6.89567 4.68982 6.83823 4.75433 6.79685C4.81885 6.75548 4.89301 6.7316 4.96954 6.72755C5.0465 6.72706 5.12197 6.74878 5.18689 6.79011C5.25181 6.83144 5.30344 6.89059 5.33557 6.96052L8.57556 13.8805C8.60057 13.9344 8.61356 13.9931 8.61359 14.0525V19.8405C8.6136 19.8939 8.60294 19.9468 8.58221 19.9959C8.56149 20.0451 8.53113 20.0897 8.49292 20.127C8.45471 20.1642 8.40937 20.1935 8.35968 20.213C8.30999 20.2325 8.25692 20.2419 8.20355 20.2405Z" fill="#003250"/>
<path d="M17.772 20.2406C17.6659 20.2406 17.5642 20.1984 17.4892 20.1234C17.4142 20.0484 17.372 19.9466 17.372 19.8405V14.1406L14.2791 7.53555H4.96503C4.85775 7.53555 4.75487 7.49294 4.67902 7.41708C4.60316 7.34123 4.56055 7.23832 4.56055 7.13104C4.56055 7.02376 4.60316 6.92089 4.67902 6.84503C4.75487 6.76917 4.85775 6.72656 4.96503 6.72656H14.533C14.61 6.72674 14.6853 6.74871 14.7502 6.78995C14.8152 6.83119 14.8671 6.89001 14.9 6.95956L18.14 13.8795C18.1651 13.9334 18.178 13.9921 18.178 14.0515V19.8396C18.1782 19.8927 18.1677 19.9453 18.1473 19.9943C18.1269 20.0434 18.0969 20.0879 18.0591 20.1252C18.0213 20.1625 17.9765 20.192 17.9272 20.2118C17.8779 20.2316 17.8251 20.2414 17.772 20.2406Z" fill="#003250"/>
<path d="M17.7434 14.4526H8.1994C8.09212 14.4526 7.98925 14.41 7.91339 14.3341C7.83753 14.2582 7.79492 14.1553 7.79492 14.0481C7.79492 13.9408 7.83753 13.8379 7.91339 13.7621C7.98925 13.6862 8.09212 13.6436 8.1994 13.6436H17.7394C17.8467 13.6436 17.9496 13.6862 18.0255 13.7621C18.1013 13.8379 18.1439 13.9408 18.1439 14.0481C18.1439 14.1553 18.1013 14.2582 18.0255 14.3341C17.9496 14.41 17.8467 14.4526 17.7394 14.4526H17.7434Z" fill="#003250"/>
<path d="M16.6697 12.1244H7.2287C7.12142 12.1244 7.01855 12.0818 6.94269 12.006C6.86683 11.9301 6.82422 11.8272 6.82422 11.7199C6.82422 11.6127 6.86683 11.5098 6.94269 11.4339C7.01855 11.358 7.12142 11.3154 7.2287 11.3154H16.6657C16.773 11.3154 16.8759 11.358 16.9517 11.4339C17.0276 11.5098 17.0702 11.6127 17.0702 11.7199C17.0702 11.8272 17.0276 11.9301 16.9517 12.006C16.8759 12.0818 16.773 12.1244 16.6657 12.1244H16.6697Z" fill="#003250"/>
<path d="M15.5012 9.79727H6.04126C5.93398 9.79727 5.83105 9.75466 5.75519 9.6788C5.67933 9.60294 5.63672 9.50007 5.63672 9.39279C5.63672 9.28551 5.67933 9.18261 5.75519 9.10675C5.83105 9.03089 5.93398 8.98828 6.04126 8.98828H15.5012C15.6085 8.98828 15.7114 9.03089 15.7873 9.10675C15.8632 9.18261 15.9058 9.28551 15.9058 9.39279C15.9058 9.50007 15.8632 9.60294 15.7873 9.6788C15.7114 9.75466 15.6085 9.79727 15.5012 9.79727Z" fill="#003250"/>
<path d="M11.4939 14.4388C11.4173 14.4393 11.3422 14.4178 11.2775 14.3768C11.2128 14.3359 11.1612 14.2772 11.1289 14.2078L7.8709 7.3508C7.82501 7.25387 7.81954 7.14268 7.85564 7.04169C7.89174 6.9407 7.96646 6.8582 8.0634 6.81232C8.16034 6.76644 8.27149 6.76093 8.37248 6.79703C8.47347 6.83313 8.55603 6.90786 8.60191 7.00479L11.8589 13.8608C11.8897 13.9224 11.9041 13.9908 11.9007 14.0595C11.8974 14.1283 11.8763 14.195 11.8396 14.2532C11.8029 14.3114 11.7518 14.3592 11.6912 14.3918C11.6306 14.4245 11.5627 14.4411 11.4939 14.4398V14.4388Z" fill="#003250"/>
<path d="M14.6657 14.4389C14.5891 14.4394 14.514 14.4179 14.4493 14.377C14.3846 14.336 14.333 14.2774 14.3007 14.208L11.0466 7.34595C11.0239 7.29795 11.0109 7.24595 11.0083 7.19291C11.0057 7.13987 11.0135 7.08681 11.0314 7.03681C11.0493 6.9868 11.0768 6.94082 11.1124 6.90146C11.1481 6.86211 11.1911 6.83016 11.2391 6.80744C11.2871 6.78472 11.3392 6.77167 11.3922 6.76905C11.4453 6.76643 11.4983 6.77427 11.5483 6.79215C11.5983 6.81002 11.6443 6.83758 11.6837 6.87323C11.723 6.90889 11.7549 6.95195 11.7777 6.99994L15.0357 13.8569C15.0665 13.9185 15.0809 13.9869 15.0775 14.0557C15.0741 14.1244 15.0531 14.1911 15.0164 14.2493C14.9797 14.3075 14.9285 14.3553 14.868 14.388C14.8074 14.4207 14.7395 14.4372 14.6707 14.4359L14.6657 14.4389Z" fill="#003250"/>
<path d="M18.8089 11.3168C18.7357 11.3172 18.6638 11.2974 18.601 11.2596C18.5382 11.2219 18.487 11.1677 18.4529 11.1028L17.8099 9.90283C17.7591 9.80828 17.748 9.6974 17.7789 9.59463C17.8098 9.49186 17.8804 9.40562 17.9749 9.35483C18.0695 9.30404 18.1803 9.29288 18.2831 9.32382C18.3859 9.35477 18.4721 9.42526 18.5229 9.51981L19.1659 10.7198C19.1917 10.7666 19.2078 10.818 19.2134 10.871C19.219 10.9241 19.2139 10.9777 19.1984 11.0288C19.1829 11.0799 19.1574 11.1273 19.1233 11.1684C19.0892 11.2094 19.0473 11.2432 18.9999 11.2678C18.9413 11.2998 18.8757 11.3167 18.8089 11.3168Z" fill="#003250"/>
<path d="M14.2609 2.8254C14.1876 2.82575 14.1157 2.80598 14.0529 2.76824C13.9901 2.73051 13.9389 2.67626 13.9048 2.61141L13.2629 1.4114C13.2378 1.36465 13.2221 1.31341 13.2169 1.26061C13.2116 1.20782 13.2167 1.15452 13.2321 1.10372C13.2474 1.05293 13.2726 1.00566 13.3061 0.964594C13.3397 0.923531 13.3811 0.889488 13.4279 0.864405C13.4746 0.839323 13.5258 0.823698 13.5786 0.818415C13.6314 0.813133 13.6847 0.818291 13.7355 0.833613C13.7863 0.848935 13.8336 0.874116 13.8747 0.90771C13.9158 0.941303 13.9498 0.982663 13.9748 1.02941L14.6169 2.2294C14.6524 2.29091 14.6709 2.36077 14.6705 2.43182C14.6701 2.50286 14.6507 2.57253 14.6145 2.63363C14.5782 2.69473 14.5264 2.74507 14.4642 2.77947C14.4021 2.81388 14.3319 2.83112 14.2609 2.8294V2.8254Z" fill="#003250"/>
<path d="M17.4101 2.51251C17.3705 2.51238 17.3311 2.50662 17.2931 2.49548C17.2424 2.48059 17.1952 2.45583 17.1541 2.42258C17.113 2.38933 17.079 2.34828 17.0539 2.30179C17.0288 2.2553 17.0131 2.20427 17.0079 2.1517C17.0026 2.09913 17.0078 2.04604 17.0231 1.99548L17.4171 0.695495C17.4481 0.592856 17.5187 0.50675 17.6132 0.456115C17.7077 0.40548 17.8185 0.394476 17.9211 0.425506C18.0238 0.456536 18.1099 0.527063 18.1605 0.621581C18.2111 0.7161 18.2221 0.826865 18.1911 0.929504L17.7971 2.22949C17.7718 2.31214 17.7204 2.38438 17.6507 2.43539C17.5809 2.48641 17.4965 2.51348 17.4101 2.51251Z" fill="#003250"/>
<path d="M19.8573 4.51858C19.7648 4.52315 19.6737 4.49555 19.5993 4.44046C19.525 4.38537 19.4721 4.30621 19.4495 4.21646C19.427 4.12671 19.4363 4.03191 19.4758 3.94824C19.5153 3.86457 19.5827 3.79721 19.6663 3.7576L20.8662 3.11459C20.9608 3.0638 21.0716 3.05264 21.1744 3.08359C21.2772 3.11453 21.3635 3.18502 21.4143 3.27957C21.4651 3.37412 21.4762 3.485 21.4453 3.58777C21.4143 3.69054 21.3438 3.77679 21.2492 3.82758L20.0493 4.47058C19.9903 4.50241 19.9243 4.51892 19.8573 4.51858Z" fill="#003250"/>
</svg>
