<svg width="82" height="82" fill="none" xmlns="http://www.w3.org/2000/svg"><circle cx="41" cy="41" r="41" fill="#80B9F0"/><g clip-path="url(#a)" fill="#fff"><path d="M33.674 65.43a1.424 1.424 0 0 1-.547-.114 1.422 1.422 0 0 1-.871-1.314c0-.186.039-.37.111-.542L48.89 24.023a1.419 1.419 0 0 1 1.855-.765 1.421 1.421 0 0 1 .877 1.313c0 .186-.038.371-.11.543l-16.53 39.444a1.418 1.418 0 0 1-1.308.871Zm34.694-17.069a.71.71 0 0 0-.88-.482l-2.913.865.71-1.46a.706.706 0 0 0-.34-.942.712.712 0 0 0-.945.34l-1.23 2.607-5.086 1.51 2.55-4.705 2.764-.645a.71.71 0 0 0 .526-.85.708.708 0 0 0-.853-.525l-1.534.355 1.42-2.636a.707.707 0 0 0-.29-.957.712.712 0 0 0-.96.284l-1.42 2.664-.547-1.523a.71.71 0 0 0-1.336.481l.98 2.714-2.55 4.69-1.605-5.363 1.463-2.452a.707.707 0 0 0-.765-1.06.71.71 0 0 0-.443.316l-.852 1.375-.782-2.657a.707.707 0 0 0-.61-.502.712.712 0 0 0-.754.906l.782 2.628-1.42-.666a.712.712 0 0 0-.946.34.707.707 0 0 0 .341.943l2.607 1.197 1.592 5.328-4.675-2.522-.646-2.756a.709.709 0 0 0-.852-.532.713.713 0 0 0-.542.574.708.708 0 0 0 .009.277l.362 1.537-2.643-1.417a.712.712 0 0 0-1.018.829c.055.18.178.33.344.418l2.663 1.417-1.52.546a.71.71 0 0 0-.426.907.71.71 0 0 0 .91.425l2.684-.978 4.71 2.544-5.384 1.601-2.451-1.516a.71.71 0 0 0-.95 1.016.71.71 0 0 0 .204.188l1.371.85-2.657.787a.71.71 0 0 0-.207 1.259.712.712 0 0 0 .442.13c.068.01.137.01.206 0l2.628-.78-.668 1.417a.706.706 0 0 0 .647 1.006.712.712 0 0 0 .646-.403l1.194-2.565 5.391-1.602-2.657 4.89-2.805.658a.71.71 0 0 0 .326 1.382l1.577-.376-1.356 2.43a.706.706 0 1 0 1.243.674l1.314-2.402.533 1.474a.71.71 0 0 0 .668.467.71.71 0 0 0 .668-.95l-.967-2.656 2.657-4.896 1.513 5.087-1.499 2.402a.708.708 0 0 0 .95.992.709.709 0 0 0 .258-.248l.83-1.332.86 2.834a.709.709 0 0 0 .71.51.958.958 0 0 0 .2 0 .71.71 0 0 0 .483-.885l-.867-2.898 1.463.708a.713.713 0 0 0 .945-.34.707.707 0 0 0-.34-.942L58.905 58.5l-1.527-5.123 4.937 2.672.66 2.834a.709.709 0 0 0 .711.545h.163a.71.71 0 0 0 .526-.85l-.37-1.573 2.444 1.318a.712.712 0 0 0 1.043-.548.706.706 0 0 0-.368-.7l-2.415-1.303 1.485-.538a.709.709 0 0 0 .419-.907.71.71 0 0 0-.91-.418l-2.663.963-4.902-2.65 5.05-1.6 2.409 1.494a.712.712 0 0 0 .722.018.71.71 0 0 0 .234-1.033.71.71 0 0 0-.203-.19l-1.336-.828 2.877-.858a.71.71 0 0 0 .476-.864ZM30.86 44.55c5.25 0 9.505-4.245 9.505-9.481s-4.255-9.48-9.505-9.48c-5.25 0-9.505 4.244-9.505 9.48 0 5.236 4.256 9.48 9.505 9.48Zm.57-20.145a.712.712 0 0 1-.676-.75l.313-5.966a.708.708 0 0 1 .71-.709.712.712 0 0 1 .71.744l-.348 5.973a.708.708 0 0 1-.71.709Zm-1.478 28.731h-.043a.71.71 0 0 1-.668-.708l.327-6.242a.707.707 0 0 1 .746-.709.713.713 0 0 1 .634.47.674.674 0 0 1 .04.274l-.326 6.242a.708.708 0 0 1-.71.673Zm9.341-24.94a.714.714 0 0 1-.526-.234.707.707 0 0 1 .05-.999l4.518-4.06a.71.71 0 0 1 1.008.057.707.707 0 0 1-.056 1l-4.518 4.059a.711.711 0 0 1-.476.177ZM17.932 47.412a.714.714 0 0 1-.525-.241.708.708 0 0 1 .05-1l4.595-4.123a.712.712 0 0 1 1.002.05.708.708 0 0 1-.05.999l-4.596 4.13a.711.711 0 0 1-.476.185Zm1.584-12.23h-.043l-6.06-.319a.711.711 0 0 1-.434-1.234.712.712 0 0 1 .513-.183l6.06.32a.711.711 0 0 1 .667.743.707.707 0 0 1-.703.673Zm3.687-7.886a.71.71 0 0 1-.526-.233l-4.035-4.443a.707.707 0 0 1 .836-1.11.71.71 0 0 1 .222.168l4.007 4.442a.708.708 0 0 1-.05 1 .711.711 0 0 1-.454.176Z"/></g><defs><clipPath id="a"><path fill="#fff" transform="translate(12.746 16.994)" d="M0 0h55.658v48.435H0z"/></clipPath></defs></svg>