<svg width="82" height="82" fill="none" xmlns="http://www.w3.org/2000/svg"><rect width="82" height="82" rx="41" fill="#80B9F0"/><g clip-path="url(#a)" fill="#fff"><path d="M65.277 15.72c0 1.67-.486 10.361-7.149 14.272-.279.164-.55.32-.83.456l-5.41-3.04c.068-.034.14-.063.214-.085a26.757 26.757 0 0 0 7.148-3.668 10.79 10.79 0 0 0 1.309-1.149c.051-.067.109-.129.171-.185.13-.15.252-.308.365-.471-1.051 1.427-5.72 2.39-10.795 4.21-.164.057-.329.114-.486.185l-4.36-2.447c1.429-1.691 3.931-3.119 10.865-4.118 7.757-1.113 8.822-3.21 8.958-3.96ZM37.982 45.926v1.163h7.8c.25 0 .471.129.442.379l-.221 1.634a.55.55 0 0 1-.536.406h-7.292c.5 3.568 1.916 4.21 4.59 4.21a23.136 23.136 0 0 0 3.338-.378.393.393 0 0 1 .407.407l.25 1.82a.969.969 0 0 1-.629 1.134c-.629.314-1.544.564-4.182.564-5.097.064-7.299-2.576-7.928-7.757h-1.637a.387.387 0 0 1-.407-.342v-1.698a.355.355 0 0 1 .25-.366.36.36 0 0 1 .157-.013h1.48l-.036-1.163c0-.37.036-.713.036-1.099h-1.48a.386.386 0 0 1-.407-.342v-1.691a.377.377 0 0 1 .407-.407h1.637c.565-5.31 2.738-7.721 7.864-7.721 1.46-.046 2.92.09 4.346.407a.758.758 0 0 1 .565.813l-.25 2.39a.414.414 0 0 1-.415.372 29.954 29.954 0 0 0-3.267-.314c-2.738-.058-4.217.506-4.69 4.053h8.215a.364.364 0 0 1 .407.407l-.193 1.634a.535.535 0 0 1-.529.406h-8.056l-.036 1.092Z"/><path d="M65.756 36.079a2.626 2.626 0 0 0-1.251-1.592l-7.192-4.046-5.412-3.04-2.03-1.163-4.36-2.447-4.083-2.298-.715-.4-.715.4L17.08 34.43a2.617 2.617 0 0 0-1.244 1.599 2.643 2.643 0 0 0 .243 2.012 2.664 2.664 0 0 0 3.618.999l1.58-.885v23.406a2.139 2.139 0 0 0 2.144 2.14h34.722c.285.002.567-.054.83-.163h.07a2.144 2.144 0 0 0 1.28-1.977V38.212l1.58.885c.398.222.846.34 1.301.343a2.641 2.641 0 0 0 2.31-1.349 2.602 2.602 0 0 0 .243-2.012ZM58.893 61.56a.713.713 0 0 1-.415.664h-.043a.855.855 0 0 1-.293.057H23.42a.716.716 0 0 1-.715-.714V37.356L40.721 27.18l18.2 10.233-.028 24.148Zm5.376-24.17a1.207 1.207 0 0 1-1.066.622 1.24 1.24 0 0 1-.6-.157L40.692 25.532 18.974 37.798c-.183.105-.39.159-.6.157a1.232 1.232 0 0 1-1.066-.62 1.225 1.225 0 0 1 .465-1.663l22.912-12.937 23.119 12.994a1.227 1.227 0 0 1 .465 1.663Z"/></g><defs><clipPath id="a"><path fill="#fff" transform="translate(15.72 15.72)" d="M0 0h50.135v48.01H0z"/></clipPath></defs></svg>