<svg width="82" height="82" fill="none" xmlns="http://www.w3.org/2000/svg"><rect width="82" height="82" rx="41" fill="#80B9F0"/><g clip-path="url(#a)" fill="#fff"><path d="M54.038 36.619a3.148 3.148 0 0 0 1.212-2.474 3.155 3.155 0 0 0-1.714-2.798 3.173 3.173 0 0 0 .04-4.507 3.152 3.152 0 0 0-2.228-.93h-5.409a3.547 3.547 0 0 0-.681.08l-.036-.036-.158.064a3.794 3.794 0 0 0-.717-.855c-.574-.547-1.17-1.115-.294-4.28a15.1 15.1 0 0 0 .165-7.708 3.646 3.646 0 0 0-1.308-1.817 3.63 3.63 0 0 0-2.121-.708c-1.026.101-1.722.9-1.866 2.158-.043.36-.079.72-.114 1.187-.201 2.193-.474 5.206-2.009 7.428-1.09 1.554-2.97 2.496-4.347 3.186-.445.223-.825.417-1.148.604-.595.434-1.154.915-1.671 1.438a23.365 23.365 0 0 1-2.497 2.115 1.188 1.188 0 0 0-1.155-1.021h-4.95a1.168 1.168 0 0 0-1.169 1.172V43.12a1.174 1.174 0 0 0 1.17 1.172h4.95a1.168 1.168 0 0 0 1.161-1.115l.115.08a10.408 10.408 0 0 0 5.624 2.157c2.375.136 4.563.208 6.543.208 1.935.012 3.87-.074 5.796-.259.345.167.722.255 1.105.26h5.265c.681 0 1.334-.272 1.816-.755a2.578 2.578 0 0 0 .752-1.82 2.58 2.58 0 0 0-.538-1.554 2.995 2.995 0 0 0 1.435-2.567 3.021 3.021 0 0 0-1.019-2.308Zm-1.822-.755h-6.262a1.72 1.72 0 0 1-1.715-1.726 1.729 1.729 0 0 1 1.068-1.597c.21-.086.434-.13.66-.13h6.141a1.717 1.717 0 0 1 1.598 1.064c.086.21.131.435.131.663a1.743 1.743 0 0 1-1.621 1.726Zm-.868-8.508a1.72 1.72 0 0 1 1.213.508 1.728 1.728 0 0 1-1.213 2.944h-5.409a1.727 1.727 0 0 1-1.721-1.726 1.737 1.737 0 0 1 .889-1.503l.603-.194c.076-.008.153-.008.23 0l5.408-.029Zm-18.414 16.54a9.026 9.026 0 0 1-4.893-1.898l-.53-.36-.388-.237V30.326c.117-.052.232-.11.344-.172a18.975 18.975 0 0 0 3.114-2.517 13.63 13.63 0 0 1 1.434-1.237c.28-.173.646-.353 1.055-.554 1.506-.762 3.587-1.798 4.878-3.653 1.757-2.532 2.044-5.753 2.26-8.12.035-.417.071-.805.114-1.157.093-.82.46-.856.574-.87a2.271 2.271 0 0 1 1.923 1.524 13.697 13.697 0 0 1-.18 6.89c-1.026 3.703-.294 4.782.718 5.717.175.149.328.323.452.518a3.144 3.144 0 0 0-1.033 2.322 3.156 3.156 0 0 0 1.29 2.532 3.169 3.169 0 0 0-1.29 2.538 3.163 3.163 0 0 0 1.327 2.618 2.998 2.998 0 0 0-.897 2.157 3.012 3.012 0 0 0 1.198 2.395 2.579 2.579 0 0 0-.682 1.726c0 .339.068.674.201.985a86.91 86.91 0 0 1-10.99-.072Zm18.65.209H46.32a1.132 1.132 0 0 1-.186-2.251h5.703a1.133 1.133 0 0 1 .882 1.1 1.14 1.14 0 0 1-.703 1.08 1.131 1.131 0 0 1-.445.085l.015-.014Zm.474-3.675h-.172a2.16 2.16 0 0 0-.301 0h-5.266a1.66 1.66 0 0 0-.186 0 1.57 1.57 0 0 1-1.435-1.568 1.592 1.592 0 0 1 1.277-1.553h6.284a1.57 1.57 0 0 1 1.435 1.56 1.592 1.592 0 0 1-1.027 1.475c-.199.075-.41.11-.623.1l.014-.014ZM27.445 55.108l1.299 2.632 2.87.417a.61.61 0 0 1 .337 1.043l-2.095 2.05.495 2.876a.613.613 0 0 1-.562.711.61.61 0 0 1-.328-.071l-2.59-1.367-2.589 1.367a.61.61 0 0 1-.89-.64l.495-2.877-2.094-2.05a.611.611 0 0 1 .337-1.042L25 57.74l1.298-2.632a.605.605 0 0 1 .929-.304c.103.075.18.182.218.304Zm25.474 0 1.29 2.632 2.87.417a.609.609 0 0 1 .51.75.612.612 0 0 1-.165.293l-2.102 2.05.495 2.876a.612.612 0 0 1-.883.64l-2.596-1.367-2.59 1.367a.608.608 0 0 1-.883-.64l.495-2.877-2.101-2.05a.612.612 0 0 1 .344-1.042l2.87-.417 1.29-2.632a.612.612 0 0 1 .578-.415.61.61 0 0 1 .578.415Zm-12.74 3.962 1.298 2.632 2.87.425a.609.609 0 0 1 .503.751.612.612 0 0 1-.166.291l-2.095 2.05.495 2.877a.613.613 0 0 1-.554.714.609.609 0 0 1-.328-.067l-2.597-1.367-2.59 1.367a.609.609 0 0 1-.89-.647l.496-2.877-2.095-2.05a.611.611 0 0 1 .337-1.042l2.87-.425 1.348-2.632a.61.61 0 0 1 1.098 0ZM16.843 47.6l1.292 2.632 2.869.417a.609.609 0 0 1 .51.75.613.613 0 0 1-.166.293l-2.101 2.05.494 2.876a.613.613 0 0 1-.556.707.608.608 0 0 1-.326-.067l-2.59-1.366-2.596 1.366a.608.608 0 0 1-.883-.64l.495-2.877-2.102-2.05a.612.612 0 0 1 .345-1.042l2.87-.417 1.29-2.632a.612.612 0 0 1 .933-.3.61.61 0 0 1 .222.3Zm45.567 0 1.291 2.632 2.87.417a.61.61 0 0 1 .51.75.613.613 0 0 1-.166.293l-2.102 2.05.495 2.876a.612.612 0 0 1-.882.64l-2.59-1.366-2.597 1.366a.608.608 0 0 1-.882-.64l.495-2.877-2.102-2.05a.612.612 0 0 1 .344-1.042l2.87-.417 1.29-2.632a.612.612 0 0 1 .934-.3.61.61 0 0 1 .222.3Z"/></g><defs><clipPath id="a"><path fill="#fff" transform="translate(11.047 10.622)" d="M0 0h56.083v58.207H0z"/></clipPath></defs></svg>