<svg width="82" height="82" fill="none" xmlns="http://www.w3.org/2000/svg"><circle cx="41" cy="41" r="41" fill="#80B9F0"/><g clip-path="url(#a)" fill="#fff"><path d="m39.82 23.359-8.3 16.795a.58.58 0 0 0 .233.755.57.57 0 0 0 .276.074h6.838a.563.563 0 0 1 .562.46.573.573 0 0 1-.01.262l-2.975 13.362a.58.58 0 0 0 .352.644.57.57 0 0 0 .695-.225L48.795 36.57a.58.58 0 0 0-.2-.792.572.572 0 0 0-.288-.08l-8.171.035a.57.57 0 0 1-.55-.4.58.58 0 0 1-.024-.241l1.362-11.387a.584.584 0 0 0-.38-.729.575.575 0 0 0-.724.383Z"/><path d="M19.542 27.923a25.092 25.092 0 0 1 9.126-9.799 24.89 24.89 0 0 1 12.837-3.679 24.689 24.689 0 0 1 17.284 7.077 24.987 24.987 0 0 1 7.468 17.204h2.63a.371.371 0 0 1 .35.248.378.378 0 0 1-.113.416l-6.064 5.206a.386.386 0 0 1-.488 0l-6.071-5.206a.383.383 0 0 1 .244-.664h2.609a21.479 21.479 0 0 0-6.45-14.738 21.223 21.223 0 0 0-14.832-6.052c-3.636.007-7.21.942-10.39 2.716a21.558 21.558 0 0 0-7.789 7.43c-.208.281-.559.267-.351-.159Zm41.639 23.611a25.092 25.092 0 0 1-9.126 9.799 24.89 24.89 0 0 1-12.837 3.679 24.689 24.689 0 0 1-17.283-7.077 24.987 24.987 0 0 1-7.468-17.204h-2.631a.372.372 0 0 1-.35-.248.378.378 0 0 1 .113-.415l6.1-5.207a.386.386 0 0 1 .488 0l6.071 5.207a.383.383 0 0 1-.243.663h-2.61a21.478 21.478 0 0 0 6.45 14.738 21.222 21.222 0 0 0 14.833 6.053 21.403 21.403 0 0 0 10.389-2.717 21.56 21.56 0 0 0 7.79-7.43c.171-.281.544-.267.315.159Z"/></g><defs><clipPath id="a"><path fill="#fff" transform="translate(11.47 14.445)" d="M0 0h57.782v50.56H0z"/></clipPath></defs></svg>