<svg width="105" height="101" fill="none" xmlns="http://www.w3.org/2000/svg"><g clip-path="url(#a)" fill="#50545F"><path d="M98.382 76.525a.605.605 0 0 1-.397-.105.633.633 0 0 1-.248-.336.584.584 0 0 1 .02-.405.543.543 0 0 1 .523-.329.632.632 0 0 1 .575.443.599.599 0 0 1 .023.253.56.56 0 0 1-.261.402.557.557 0 0 1-.235.077Zm-3.438-5.747a1.058 1.058 0 0 1-.789-.11 1.128 1.128 0 0 1-.514-.633 1.036 1.036 0 0 1 .072-.794.969.969 0 0 1 .613-.48 1.06 1.06 0 0 1 .788.121c.242.142.423.372.505.64.082.265.056.547-.07.782a.956.956 0 0 1-.605.474Zm-3.728-5.731a1.43 1.43 0 0 1-.838-.042 1.537 1.537 0 0 1-1.01-1.302c-.025-.287.036-.57.175-.813a1.33 1.33 0 0 1 .604-.55c.255-.115.542-.15.826-.098a1.537 1.537 0 0 1 1.201 1.128 1.41 1.41 0 0 1-.135 1.05 1.327 1.327 0 0 1-.823.627Zm-4.038-5.637a1.598 1.598 0 0 1-.928-.041 1.721 1.721 0 0 1-1.14-1.431 1.565 1.565 0 0 1 .174-.907c.147-.273.373-.493.651-.63s.594-.186.91-.14a1.72 1.72 0 0 1 1.383 1.195 1.59 1.59 0 0 1-.11 1.218 1.486 1.486 0 0 1-.94.737Zm-4.361-5.491a1.76 1.76 0 0 1-1.02-.046 1.89 1.89 0 0 1-1.25-1.572 1.72 1.72 0 0 1 .19-.996c.16-.3.41-.54.715-.691.305-.15.653-.205.999-.155a1.896 1.896 0 0 1 1.52 1.312 1.75 1.75 0 0 1-.121 1.338 1.632 1.632 0 0 1-1.032.81Zm-4.73-5.306a1.812 1.812 0 0 1-1.053-.047 1.951 1.951 0 0 1-1.292-1.623c-.039-.36.03-.718.196-1.028.167-.31.424-.559.739-.714a1.76 1.76 0 0 1 1.03-.16 1.958 1.958 0 0 1 1.569 1.355c.144.469.1.966-.124 1.382a1.684 1.684 0 0 1-1.065.835Zm-5.151-5.091c.911-.236 1.419-1.182 1.134-2.112-.285-.93-1.254-1.492-2.166-1.255-.91.236-1.418 1.182-1.133 2.112.284.93 1.254 1.492 2.165 1.255Zm-5.523-4.769c-.3.08-.621.069-.924-.035A1.705 1.705 0 0 1 65.35 37.3c-.034-.316.026-.63.172-.902.145-.272.371-.49.648-.626.277-.135.592-.183.905-.136.314.046.611.185.855.398.243.213.422.491.514.799.12.405.08.834-.113 1.193-.193.36-.523.62-.918.727ZM61.56 34.49c-.27.07-.56.058-.83-.037a1.538 1.538 0 0 1-1.017-1.278c-.03-.283.023-.565.154-.81.132-.244.334-.44.582-.562.248-.122.53-.166.812-.125a1.536 1.536 0 0 1 1.235 1.067c.113.369.078.76-.098 1.088a1.326 1.326 0 0 1-.839.658Zm-6.25-3.678a1.313 1.313 0 0 1-.763-.035 1.413 1.413 0 0 1-.936-1.176c-.027-.26.022-.52.143-.744.12-.225.306-.405.535-.518.228-.112.488-.152.747-.115a1.418 1.418 0 0 1 1.136.982c.104.339.072.699-.09 1a1.22 1.22 0 0 1-.772.606Zm-6.482-3.093a1.217 1.217 0 0 1-.914-.132 1.297 1.297 0 0 1-.589-.74 1.192 1.192 0 0 1 .082-.913c.148-.275.402-.474.705-.553.304-.079.633-.032.915.132.282.163.494.43.589.74.095.31.065.638-.083.913a1.114 1.114 0 0 1-.705.553Zm-6.708-2.493a1.101 1.101 0 0 1-.829-.119 1.173 1.173 0 0 1-.532-.669c-.086-.28-.06-.578.074-.827s.363-.429.638-.5c.275-.072.573-.029.828.12.255.147.447.388.533.668.086.28.059.578-.075.827a1.009 1.009 0 0 1-.638.5Zm-6.849-1.886a.972.972 0 0 1-.564-.025 1.047 1.047 0 0 1-.692-.87.95.95 0 0 1 .106-.55.9.9 0 0 1 .395-.382.942.942 0 0 1 .553-.086 1.049 1.049 0 0 1 .84.725.965.965 0 0 1-.067.74.903.903 0 0 1-.57.448ZM28.3 22.012a.883.883 0 0 1-.594-.144.927.927 0 0 1-.373-.498.855.855 0 0 1 .035-.604.795.795 0 0 1 .425-.41.83.83 0 0 1 .353-.06.885.885 0 0 1 .354.093.924.924 0 0 1 .47.555.874.874 0 0 1 .033.364.793.793 0 0 1-.703.705Zm-6.98-.829a.725.725 0 0 1-.545-.079.772.772 0 0 1-.35-.44.71.71 0 0 1 .048-.544.664.664 0 0 1 .42-.33.725.725 0 0 1 .545.08.773.773 0 0 1 .35.44.71.71 0 0 1-.049.543.664.664 0 0 1-.42.33Zm-7.022-.339a.517.517 0 0 0 .356-.663.573.573 0 0 0-.68-.395.517.517 0 0 0-.357.664c.09.292.394.468.68.394Zm-6.948.048a.392.392 0 0 1-.294-.042.417.417 0 0 1-.189-.238.383.383 0 0 1 .027-.294.358.358 0 0 1 .226-.178.392.392 0 0 1 .294.043.42.42 0 0 1 .19.238c.03.1.02.205-.027.293a.358.358 0 0 1-.227.178Zm-6.976.477a.233.233 0 0 1-.175-.025.247.247 0 0 1-.112-.141.227.227 0 0 1 .016-.174.213.213 0 0 1 .134-.106.232.232 0 0 1 .175.026.247.247 0 0 1 .112.14.227.227 0 0 1-.016.174.213.213 0 0 1-.134.106Z"/><path d="M97.9 75.478c-2.273-.472-4.596-.17-6.597.859 3.374.524 6.595 1.944 9.325 4.111-.272-3.402.311-6.772 1.694-9.8a9.876 9.876 0 0 0-4.423 4.83Z"/></g><defs><clipPath id="a"><path fill="#fff" transform="matrix(.96784 -.25155 .29288 .95615 0 20.97)" d="M0 0h83.362v82.955H0z"/></clipPath></defs></svg>